<?xml version="1.0" encoding="UTF-8" standalone="no"?>
<svg xmlns="http://www.w3.org/2000/svg" width="300" height="200" viewBox="0 0 79.374997 52.916668">
  <path stroke="#000" stroke-width=".04934299" d="M60.880236 92.137721h58.160534c11.9299 0 21.53412 9.861869 21.53412 22.111819v23.24576c0 12.24996-9.60422 22.11182-21.53412 22.11182H60.880236c-11.9299 0-21.534115-9.86186-21.534115-22.11182v-23.24576c0-12.24995 9.604215-22.111819 21.534115-22.111819z" color="#000" opacity=".98999999" overflow="visible" paint-order="markers stroke fill" style="isolation:auto;mix-blend-mode:normal;solid-color:#000;solid-opacity:1;marker:none" transform="translate(-30.8175182 -72.192033) scale(.78373)"/>
  <g style="line-height:125%;-inkscape-font-specification:'Times New Roman, Normal';font-variant-ligatures:normal;font-variant-caps:normal;font-variant-numeric:normal;font-feature-settings:normal;text-align:center" text-anchor="middle" word-spacing="0">
    <path fill="#fff" d="m55.460852 125.03095 5.784631-.68342q.976309 6.85857 6.394824 6.85857 2.68485 0 4.222536-1.39124 1.537687-1.41565 1.537687-3.4903 0-1.22039-.53697-2.07466-.53697-.85427-1.635317-1.39124-1.098348-.56138-5.320885-1.85499-3.783197-1.14716-5.540553-2.48959-1.757357-1.34242-2.806889-3.51471-1.025124-2.19669-1.025124-4.71069 0-2.92893 1.318017-5.27207 1.342425-2.34314 3.685566-3.53912 2.343142-1.19598 5.784631-1.19598 5.174438 0 8.078958 2.80689 2.904519 2.80689 3.075373 8.03014l-5.931077.3173q-.390524-2.88011-1.684133-4.02727-1.29361-1.14716-3.685567-1.14716-2.391957 0-3.685566 1.00071-1.29361 1.00072-1.29361 2.48959 0 1.46446 1.171571 2.46518t5.394107 2.1967q4.466614 1.2936 6.44364 2.73366 2.001433 1.41565 3.050966 3.68557 1.049532 2.24551 1.049532 5.46733 0 4.66187-2.880112 7.83488-2.855704 3.173-8.957635 3.173-10.788215 0-12.008601-12.27708zm36.318696 11.64248-10.470915-35.78172h6.419232l7.419949 26.48238 7.175876-26.48238h6.29719l-10.495324 35.78172zm33.511802-13.15576v-6.02871h12.76525v14.25411q-1.92821 2.26992-5.46734 3.90524-3.53912 1.63531-7.10264 1.63531-4.34458 0-7.66403-2.12347-3.31945-2.14788-5.27207-6.39482-1.92821-4.27135-1.92821-10.03158 0-5.90667 1.95262-10.1048 1.97703-4.19812 5.10121-6.27278 3.1486-2.07466 7.51758-2.07466 5.24767 0 8.39626 2.68485 3.17301 2.66044 4.07609 7.83488l-5.85785 1.34243q-.65901-2.75808-2.41637-4.22254-1.75735-1.46446-4.19813-1.46446-3.78319 0-6.12634 2.95333-2.34314 2.92893-2.34314 8.95764 0 6.46804 2.53841 9.83631 2.17228 2.90452 5.88226 2.90452 1.73295 0 3.58793-.80546 1.8794-.82986 3.34386-2.24551v-4.53983z" aria-label="SVG" font-family="Arial" font-size="49.9870224" font-stretch="condensed" font-weight="700" letter-spacing="0" style="-inkscape-font-specification:'Arial, Bold Condensed';font-variant-ligatures:normal;font-variant-caps:normal;font-variant-numeric:normal;font-feature-settings:normal;text-align:center" transform="matrix(.73966 0 0 .83043 -31.88132698 -72.19228386)"/>
  </g>
</svg>